# xmcd
#
# Track frame offsets:
#	150
#	14801
#	24229
#	33489
#	43344
#	55674
#	66546
#	78991
#	91158
#	102888
#
# Disc length: 1549 seconds
#
# Revision: 1
# Processed by: cddbd v1.5.2PL0 Copyright (c) Steve Scherf et al.
# Submitted via: audiograbber 1.83.01
#
DISCID=7e060b0a
DTITLE=George Jones - I Can Love You Enough
DYEAR=1974
DGENRE=Country
TTITLE0=I Can Love You Enough
TTITLE1=Get Some Loving Done
TTITLE2=Free As A Breeze
TTITLE3=Leaning On The Shoulder Of Love
TTITLE4=If My Heart Had Windows
TTITLE5=I Fall In Love Every Day
TTITLE6=Lifetime To Regret
TTITLE7=Who'll Turn Out The Lights
TTITLE8=Loving You Makes You Mine
TTITLE9=Come Sundown
EXTD=
EXTT0=
EXTT1=
EXTT2=
EXTT3=
EXTT4=
EXTT5=
EXTT6=
EXTT7=
EXTT8=
EXTT9=
PLAYORDER=
